<?xml version="1.0" encoding="UTF-8" standalone="no"?>
<!-- Generator: Adobe Illustrator 16.0.0, SVG Export Plug-In . SVG Version: 6.00 Build 0)  -->

<svg
   version="1.1"
   id="BLOB"
   x="0px"
   y="0px"
   width="5000"
   height="5000"
   viewBox="0 0 5000 5000"
   enable-background="new 0 0 128 128"
   xml:space="preserve"
   xmlns="http://www.w3.org/2000/svg"
   xmlns:svg="http://www.w3.org/2000/svg"><defs
   id="defs1096"><clipPath
     id="clip0"><rect
       width="71"
       height="55"
       fill="#ffffff"
       id="rect238"
       x="0"
       y="0" /></clipPath></defs>

<g
   style="fill:none"
   id="g261"
   transform="matrix(21.12676,0,0,21.12676,750.00001,1979.4121)"><circle
     style="fill:#ffffff"
     id="path1117"
     cx="2500"
     cy="2500"
     r="2500"
     transform="matrix(0.04733333,0,0,0.04733333,-35.500001,-93.692175)" /><circle
     style="fill:#333333;stroke-width:0.8;fill-opacity:1"
     id="circle1119"
     cx="2500"
     cy="2500"
     r="2000"
     transform="matrix(0.04733333,0,0,0.04733333,-35.500001,-93.692175)" /><path
     d="m 62.471166,4.8978 c -4.5253,-2.0764 -9.378,-3.6062 -14.4518,-4.48238 -0.0924,-0.01691 -0.1847,0.025349 -0.2323,0.109869 -0.6241,1.110011 -1.3154,2.558111 -1.7995,3.696311 -5.4572,-0.817 -10.8864,-0.817 -16.2317,0 -0.4842,-1.1635 -1.2006,-2.5863 -1.8275,-3.696311 -0.0476,-0.0817 -0.1399,-0.123959 -0.2323,-0.109869 -5.071,0.87338 -9.9237,2.40318 -14.4518,4.48238 -0.0392,0.0169 -0.0728,0.0451 -0.0951,0.0817 C 3.9446161,18.7309 1.4231051,32.1443 2.6600741,45.3914 c 0.0056,0.0648 0.041978,0.1268 0.092353,0.1662 6.072899,4.4598 11.9555389,7.1673 17.7289389,8.9619 0.0924,0.0282 0.1903,-0.0056 0.2491,-0.0817 1.3657,-1.865 2.5831,-3.8315 3.6269,-5.8995 0.0616,-0.1211 0.0028,-0.2648 -0.1231,-0.3127 -1.931,-0.7325 -3.7697,-1.6256 -5.5384,-2.6398 -0.1399,-0.0817 -0.1511,-0.2818 -0.0224,-0.3776 0.3722,-0.2789 0.7445,-0.5691 1.0999,-0.8621 0.0643,-0.0535 0.1539,-0.0648 0.2295,-0.031 11.6196,5.3051 24.1992,5.3051 35.6817,0 0.0756,-0.0366 0.1652,-0.0253 0.2323,0.0282 0.3555,0.293 0.7277,0.586 1.1027,0.8649 0.1287,0.0958 0.1203,0.2959 -0.0196,0.3776 -1.7687,1.0339 -3.6074,1.9073 -5.5412,2.637 -0.1259,0.0479 -0.1819,0.1944 -0.1203,0.3155 1.0662,2.0651 2.2836,4.0316 3.6241,5.8967 0.056,0.0789 0.1567,0.1127 0.2491,0.0845 5.8014,-1.7946 11.684,-4.5021 17.7569,-8.9619 0.0532,-0.0394 0.0868,-0.0986 0.0924,-0.1634 1.4804,-15.3151 -2.4796,-28.6185 -10.4975,-40.4119 -0.0196,-0.0394 -0.0531,-0.0676 -0.0923,-0.0845 z m -36.3786,32.4275 c -3.4983,0 -6.3808,-3.2117 -6.3808,-7.156 0,-3.9443 2.8266,-7.156 6.3808,-7.156 3.5821,0 6.4367,3.2399 6.3807,7.156 0,3.9443 -2.8266,7.156 -6.3807,7.156 z m 23.5919,0 c -3.4982,0 -6.3807,-3.2117 -6.3807,-7.156 0,-3.9443 2.8265,-7.156 6.3807,-7.156 3.5822,0 6.4367,3.2399 6.3808,7.156 0,3.9443 -2.7986,7.156 -6.3808,7.156 z"
     fill="#ffffff"
     id="path234"
     clip-path="url(#clipPath254)" /><path
     class="st1"
     d="m 227.9,170.9 c 0,-6.9 -5.6,-12.5 -12.5,-12.5 -3.4,0 -6.4,1.3 -8.6,3.5 -8.5,-6.1 -20.3,-10.1 -33.3,-10.6 l 5.7,-26.7 18.5,3.9 c 0.2,4.7 4.1,8.5 8.9,8.5 4.9,0 8.9,-4 8.9,-8.9 0,-4.9 -4,-8.9 -8.9,-8.9 -3.5,0 -6.5,2 -7.9,5 L 178,119.8 c -0.6,-0.1 -1.2,0 -1.7,0.3 -0.5,0.3 -0.8,0.8 -1,1.4 l -6.3,29.8 c -13.3,0.4 -25.2,4.3 -33.8,10.6 -2.2,-2.1 -5.3,-3.5 -8.6,-3.5 -6.9,0 -12.5,5.6 -12.5,12.5 0,5.1 3,9.4 7.4,11.4 -0.2,1.2 -0.3,2.5 -0.3,3.8 0,19.2 22.3,34.7 49.9,34.7 27.6,0 49.9,-15.5 49.9,-34.7 0,-1.3 -0.1,-2.5 -0.3,-3.7 4.1,-2 7.2,-6.4 7.2,-11.5 z m -85.5,8.9 c 0,-4.9 4,-8.9 8.9,-8.9 4.9,0 8.9,4 8.9,8.9 0,4.9 -4,8.9 -8.9,8.9 -4.9,0 -8.9,-4 -8.9,-8.9 z m 49.7,23.5 c -6.1,6.1 -17.7,6.5 -21.1,6.5 -3.4,0 -15.1,-0.5 -21.1,-6.5 -0.9,-0.9 -0.9,-2.4 0,-3.3 0.9,-0.9 2.4,-0.9 3.3,0 3.8,3.8 12,5.2 17.9,5.2 5.9,0 14,-1.4 17.9,-5.2 0.9,-0.9 2.4,-0.9 3.3,0 0.7,1 0.7,2.4 -0.2,3.3 z m -1.6,-14.6 c -4.9,0 -8.9,-4 -8.9,-8.9 0,-4.9 4,-8.9 8.9,-8.9 4.9,0 8.9,4 8.9,8.9 0,4.9 -4,8.9 -8.9,8.9 z"
     id="path422"
     transform="matrix(0.66549504,0,0,0.66549504,11.633683,-97.793289)" /></g><style
   type="text/css"
   id="style418">
	.st0{fill:#FF4500;}
	.st1{fill:#FFFFFF;}
	.st2{display:none;}
	.st3{display:inline;fill:none;stroke:#D8D8D8;stroke-width:0.5;stroke-miterlimit:10;}
</style></svg>
